PathFileType	4	(X/Y/Z)	C:\Users\Basilio\Documents\Thesis Gigler\squatting_fais\c3dfiles\040\SLS_pre_front5\markers_experimental.trc
DataRate	CameraRate	NumFrames	NumMarkers	Units	OrigDataRate	OrigDataStartFrame	OrigNumFrames
200.000000	200.000000	4	62	mm	200.000000	981	1309
Frame#	Time	FHD			LBHD			RBHD			C7			T10			CLAV			LSHO			LUUPA			LMUPA			LDUPA			LLEP			LMEP			LRAD			LUL			LRFIN			RSHO			RUPA1			RMUPA			RDUPA			RLEP			RMEP			RRAD			RUL			RUFIN			LASI			RASI			USACR			LSACR			RSACR			LTHI1			LTHI2			LTHI3			LTHI4			LLFC			LMFC			LTIB1			LTIB2			LTIB3			LTIB4			LLMAL			LMMAL			LHEE			LMT1			LMT2			LMT5			RTHI			RTHI2			RTHI3			RTHI4			RLFC			RMFC			RTIB1			RTIB2			RTIB3			RTIB4			RLMAL			RMMAL			RHEE			RMT1			RMT2			RMT5			*61			
		X1	Y1	Z1	X2	Y2	Z2	X3	Y3	Z3	X4	Y4	Z4	X5	Y5	Z5	X6	Y6	Z6	X7	Y7	Z7	X8	Y8	Z8	X9	Y9	Z9	X10	Y10	Z10	X11	Y11	Z11	X12	Y12	Z12	X13	Y13	Z13	X14	Y14	Z14	X15	Y15	Z15	X16	Y16	Z16	X17	Y17	Z17	X18	Y18	Z18	X19	Y19	Z19	X20	Y20	Z20	X21	Y21	Z21	X22	Y22	Z22	X23	Y23	Z23	X24	Y24	Z24	X25	Y25	Z25	X26	Y26	Z26	X27	Y27	Z27	X28	Y28	Z28	X29	Y29	Z29	X30	Y30	Z30	X31	Y31	Z31	X32	Y32	Z32	X33	Y33	Z33	X34	Y34	Z34	X35	Y35	Z35	X36	Y36	Z36	X37	Y37	Z37	X38	Y38	Z38	X39	Y39	Z39	X40	Y40	Z40	X41	Y41	Z41	X42	Y42	Z42	X43	Y43	Z43	X44	Y44	Z44	X45	Y45	Z45	X46	Y46	Z46	X47	Y47	Z47	X48	Y48	Z48	X49	Y49	Z49	X50	Y50	Z50	X51	Y51	Z51	X52	Y52	Z52	X53	Y53	Z53	X54	Y54	Z54	X55	Y55	Z55	X56	Y56	Z56	X57	Y57	Z57	X58	Y58	Z58	X59	Y59	Z59	X60	Y60	Z60	X61	Y61	Z61	X62	Y62	Z62	

982	4.905	-258.3628845214844	1768.996826171875	-1148.35400390625	-377.5305786132813	1717.585693359375	-1202.061767578125	-441.7211303710939	1676.974609375	-1075.92626953125	-434.2817382812501	1550.6416015625	-1117.346923828125	-418.9891052246095	1225.307983398438	-1101.361206054688	nan	nan	nan	-358.9823608398438	1559.0283203125	-1256.814086914063	-188.4255981445313	1536.533203125	-1323.169311523438	-163.6596984863282	1553.326049804688	-1283.805419921875	-119.2831344604492	1532.698120117188	-1319.743408203125	-59.57909774780275	1512.878784179688	-1314.970336914063	-65.38893127441408	1458.660766601563	-1279.703491210938	189.8095092773438	1566.389282226563	-1174.95458984375	206.6283569335938	1575.372314453125	-1249.773559570313	272.1105346679688	1596.635375976563	-1155.826416015625	-338.1981506347657	1547.299682617188	-980.1636962890627	-169.4253387451172	1499.716064453125	-912.9973144531252	-145.1478118896485	1526.946044921875	-945.226257324219	-100.7242050170899	1491.77392578125	-922.4619140625002	-39.85348510742188	1491.061889648438	-938.5718994140627	-47.48757934570313	1436.635864257813	-991.683288574219	201.0920562744141	1583.646240234375	-1085.018676757813	219.0238647460938	1559.3779296875	-1013.689025878906	299.3088684082032	1596.063720703125	-1085.838989257813	-211.4824371337891	1080.17724609375	-1221.51220703125	-192.1866760253907	1092.05126953125	-989.0714111328127	-391.4709472656251	1095.391479492188	-1086.095947265625	-393.0632934570314	1064.091674804688	-1111.6962890625	-386.2134399414064	1064.552490234375	-1055.281127929688	-316.2965087890626	806.1210937500002	-1238.659301757813	-272.3701782226563	733.2732543945314	-1248.236694335938	-229.324203491211	741.8121948242189	-1260.310791015625	-287.5939941406251	679.7747802734376	-1227.567626953125	-257.4655761718751	549.0858764648439	-1211.043579101563	-233.1563720703126	540.7311401367189	-1081.84912109375	-241.5574798583985	324.0995483398438	-1149.384033203125	-321.3197937011719	294.5603027343751	-1175.280517578125	-280.2039489746094	281.3432006835938	-1165.793212890625	-277.5856628417969	207.495346069336	-1122.840942382813	-353.8435058593751	127.1222610473633	-1114.369995117188	-310.4443054199219	146.9609375	-1040.489624023438	-413.611297607422	98.67945098876956	-1053.532470703125	-198.8221893310547	59.91847229003908	-1053.169921875	-205.9083557128907	48.92478179931642	-1099.396484375	-262.1562194824219	33.67037963867188	-1139.98095703125	-186.0029449462891	820.0524902343752	-902.982604980469	-137.7689514160157	774.5937500000002	-909.9560546875002	-107.8527526855469	785.1774902343752	-919.7141723632815	-147.1692047119141	692.5239868164064	-921.3743896484377	-101.798568725586	564.6501464843751	-933.1873168945315	-96.24794006347659	560.6105346679689	-1067.618896484375	14.20188808441162	411.6835937500001	-956.1695556640627	-22.51121711730957	311.8781738281251	-935.2634887695315	20.67794227600098	325.6813659667969	-944.4001464843752	56.95465087890626	291.4309082031251	-976.2012939453127	55.38650512695314	164.9174041748047	-957.8676757812502	68.57231903076173	189.0068054199219	-1043.638916015625	15.28603744506836	102.5149765014649	-1017.511474609375	225.4496765136719	173.8620300292969	-1022.278503417969	220.4066009521485	173.4929962158203	-981.7174072265627	190.2372741699219	132.1222686767578	-933.2148437500002	nan	nan	nan	
983	4.91	-258.2680053710938	1769.027709960938	-1148.4775390625	-377.5229797363282	1717.632934570313	-1202.200805664063	-441.6395263671876	1676.989990234375	-1076.035522460938	-434.2883911132814	1550.657348632813	-1117.504028320313	-419.1770935058595	1225.3994140625	-1101.304321289063	nan	nan	nan	-358.8662719726563	1559.02294921875	-1256.895874023438	-188.4865264892578	1536.464599609375	-1323.319458007813	-163.6666717529297	1553.18310546875	-1283.984130859375	-119.2884750366211	1532.62646484375	-1319.990478515625	-59.58665466308595	1512.740112304688	-1315.207153320313	-65.5420608520508	1458.818603515625	-1279.897827148438	190.1807708740235	1566.245361328125	-1175.368041992188	206.5809173583985	1575.321044921875	-1250.2529296875	272.1312561035157	1596.57470703125	-1156.236206054688	-338.2393798828126	1547.43994140625	-980.3538818359377	-169.53857421875	1499.741577148438	-912.8323974609377	-145.1709289550782	1527.046142578125	-945.2244262695315	-100.66796875	1491.978149414063	-922.3110351562502	-39.89795303344727	1491.203247070313	-938.3953857421877	-47.40535354614259	1436.718139648438	-991.4920043945315	201.1293182373047	1583.475952148438	-1084.9189453125	218.6335144042969	1559.255859375	-1013.908325195313	299.2379455566407	1596	-1085.649658203125	-211.8567047119141	1080.138427734375	-1221.619140625	-192.3348388671876	1092.088256835938	-989.1870727539065	-391.6548767089845	1095.259155273438	-1086.089599609375	-393.3597412109376	1064.043823242188	-1111.5791015625	-386.4528808593751	1064.571655273438	-1055.213256835938	-316.6513977050782	806.1668090820315	-1238.567260742188	-272.7280883789063	733.3137817382814	-1248.284301757813	-229.5771789550782	741.7644042968751	-1260.318725585938	-287.8443908691407	679.7618408203126	-1227.55517578125	-257.6739807128907	549.1227416992189	-1211.0087890625	-233.2066955566407	540.7376098632814	-1081.896240234375	-241.6273498535157	324.0094909667969	-1149.43994140625	-321.3564147949219	294.6036071777344	-1175.286010742188	-280.4298095703126	281.3351440429688	-1165.863403320313	-277.6492614746094	207.4279174804688	-1122.857666015625	-353.9218444824219	127.1301345825196	-1114.435180664063	-310.4523620605469	146.9419403076172	-1040.520263671875	-413.6210937500001	98.67301177978518	-1053.492065429688	-198.8130187988282	59.96599578857423	-1053.120849609375	-205.9421081542969	48.96727752685548	-1099.457763671875	-262.1519775390626	33.67777633666993	-1139.9716796875	-186.1329498291016	820.096618652344	-903.0283203125002	-137.8287963867188	774.758728027344	-910.0192871093752	-107.964225769043	785.2110595703127	-919.901794433594	-147.3313446044922	692.8010864257814	-921.4412231445315	-101.8797683715821	564.6625976562501	-933.2156372070315	-96.26834106445315	560.5841674804689	-1067.581909179688	14.18046379089356	411.8228454589845	-956.1298828125002	-22.53295707702637	312.0400085449219	-935.1505126953127	21.46841049194336	326.6007385253907	-943.3569335937502	56.79945373535158	291.9003295898438	-976.0863037109377	55.55667114257814	165.1068878173828	-957.7780761718752	68.60041809082033	189.0995635986328	-1043.525634765625	15.41581630706787	102.7274551391602	-1017.399719238281	225.4911193847657	174.0257873535157	-1022.028747558594	219.8596191406251	174.130111694336	-981.388122558594	190.3187408447266	132.2432708740235	-932.9433593750002	nan	nan	nan	
984	4.915	-258.2826843261719	1769.069946289063	-1148.567749023438	-377.4082641601563	1717.658203125	-1202.2666015625	-441.6252441406251	1677.075439453125	-1076.144653320313	-434.3483886718751	1550.773681640625	-1117.694702148438	-419.2218627929689	1225.516845703125	-1101.291381835938	nan	nan	nan	-358.8336181640626	1559.025512695313	-1256.946411132813	-188.4884033203125	1536.400512695313	-1323.552612304688	-163.491943359375	1553.1474609375	-1284.306030273438	-119.3855133056641	1532.435791015625	-1320.254028320313	-59.6249237060547	1512.572631835938	-1315.411987304688	-65.42608642578126	1458.631469726563	-1280.309448242188	190.540512084961	1565.980590820313	-1175.850341796875	206.7372436523438	1575.27197265625	-1250.749389648438	271.9254760742188	1596.453125	-1156.6552734375	-338.1875915527344	1547.565185546875	-980.473083496094	-169.6015625	1500.005737304688	-912.8266601562502	-145.3026885986328	1527.119995117188	-945.2412719726565	-100.6848983764649	1492.115234375	-922.1855468750002	-39.94424438476563	1491.331665039063	-938.2363281250002	-47.43021392822266	1436.65966796875	-991.200134277344	201.1374511718751	1583.36767578125	-1084.779418945313	218.6562805175782	1559.254760742188	-1013.805847167969	299.3327941894532	1596.017578125	-1085.63525390625	-212.2418212890626	1080.120727539063	-1221.722045898438	-192.4479064941407	1092.118896484375	-989.3120117187502	-391.895477294922	1095.24365234375	-1085.998779296875	-393.6717834472657	1064.006713867188	-1111.392456054688	-386.7016906738282	1064.591430664063	-1055.204345703125	-316.9743957519532	806.222595214844	-1238.507568359375	-272.9830322265626	733.2890014648439	-1248.254760742188	-229.8095092773438	741.8314819335939	-1260.308715820313	-288.0709533691407	679.7744750976564	-1227.5390625	-257.8876647949219	549.2057495117189	-1211.010009765625	-233.1903839111329	540.7073364257814	-1081.9521484375	-241.7203216552735	324.0717773437501	-1149.674072265625	-321.5455627441407	294.6187133789063	-1175.274780273438	-280.7360839843751	281.3581848144532	-1165.957641601563	-277.9801330566407	207.5879211425782	-1123.19580078125	-353.8209533691407	127.0677337646485	-1114.341918945313	-310.4526672363282	146.9639282226563	-1040.57275390625	-413.6211853027345	98.66578674316409	-1053.473266601563	-198.7594146728516	60.05950164794923	-1053.250244140625	-205.9826354980469	48.9048194885254	-1099.440063476563	-262.2106628417969	33.6712760925293	-1139.980590820313	-186.2227935791016	820.1785888671877	-903.134216308594	-137.849365234375	774.774353027344	-909.8516235351565	-107.9110794067383	785.414001464844	-919.8528442382815	-147.4159393310547	692.9532470703126	-921.4822387695315	-101.981430053711	564.6783447265626	-933.2416992187502	-96.51368713378909	560.8236694335939	-1067.481567382813	14.16789054870606	411.8818664550782	-956.0566406250002	-22.55773735046387	312.0853271484376	-935.2448730468752	21.08382225036621	326.5134277343751	-943.194519042969	56.79172897338869	292.1254272460938	-975.9382324218752	55.72436141967775	165.2596435546875	-957.8630981445315	69.04647827148439	189.4451141357422	-1043.444458007813	15.55995178222657	102.8275299072266	-1017.354553222656	225.7962951660157	174.5497741699219	-1021.712036132813	220.0683898925782	174.1573486328125	-981.1636352539065	190.3811950683594	132.4889373779297	-932.7908935546877	nan	nan	nan	
985	4.92	-258.2933654785157	1769.073486328125	-1148.643310546875	-377.3898620605469	1717.747436523438	-1202.346923828125	-441.6100463867189	1677.129638671875	-1076.243896484375	-434.343719482422	1550.817138671875	-1117.886962890625	-419.3966674804689	1225.557250976563	-1101.276977539063	nan	nan	nan	-358.7811889648438	1559.044677734375	-1257.051513671875	-188.4920043945313	1536.32275390625	-1323.81396484375	-163.52294921875	1553.06591796875	-1284.581176757813	-119.3364715576172	1532.324951171875	-1320.549560546875	-59.65549850463869	1512.44873046875	-1315.821899414063	-65.91542053222658	1458.7646484375	-1280.758544921875	191.0315246582032	1565.618896484375	-1176.374389648438	206.6297149658204	1575.190795898438	-1251.129516601563	271.8191528320313	1596.391845703125	-1157.141967773438	-338.2672119140626	1547.62646484375	-980.6622314453127	-169.7341613769532	1500.109008789063	-912.8521728515627	-145.4657745361328	1527.275268554688	-945.2457275390627	-100.8763275146485	1492.490600585938	-921.9568481445315	-39.68244934082032	1490.621826171875	-937.9937744140627	-47.64083099365235	1436.933349609375	-990.8421020507815	201.0821685791016	1583.185180664063	-1084.640747070313	218.6315155029297	1559.226196289063	-1013.634765625	299.2974853515626	1595.777099609375	-1085.493286132813	-212.5344543457032	1080.105102539063	-1221.861328125	-192.7020874023438	1092.188842773438	-989.2834472656252	-392.1361083984376	1095.163696289063	-1085.963134765625	-393.8687438964845	1063.958984375	-1111.344116210938	-387.1606750488282	1064.734252929688	-1055.12744140625	-317.3669738769532	806.336608886719	-1238.451904296875	-273.3096618652344	733.3482666015626	-1248.272583007813	-230.0303039550782	741.7697143554689	-1260.342163085938	-288.2006530761719	679.7474975585939	-1227.562133789063	-257.6993713378907	548.6992187500001	-1211.12890625	-232.8163604736329	541.0079956054689	-1081.765014648438	-241.8110656738282	324.1777954101563	-1149.855590820313	-321.6161499023438	294.6404724121094	-1175.3115234375	-280.9312133789063	281.4672546386719	-1166.078125	-278.1094055175782	207.6343536376954	-1123.294921875	-353.8914184570313	127.0544586181641	-1114.361450195313	-310.4203491210938	146.973861694336	-1040.681884765625	-413.5521240234376	98.66326141357425	-1053.585815429688	-198.7557830810547	60.0809898376465	-1053.20361328125	-205.9755096435547	48.91154098510744	-1099.4365234375	-262.1824645996094	33.64817428588868	-1139.960815429688	-186.1849365234375	820.305603027344	-903.0745849609377	-137.9337158203125	774.9446411132815	-909.8171997070315	-107.9826736450196	785.5578613281252	-919.9104003906252	-147.4967651367188	693.0258789062501	-921.524597167969	-102.1546401977539	564.7629394531251	-933.1984863281252	-96.34677886962893	560.6536254882814	-1067.275512695313	14.03750801086426	412.0366516113282	-955.9556274414065	-22.50786781311036	312.1146545410157	-935.1799926757815	20.56575393676758	326.2810363769532	-943.9628906250002	56.96919631958009	292.0320739746094	-975.9307250976565	55.35393142700197	165.0556945800782	-957.9420166015627	68.96009063720705	189.4570617675782	-1043.5146484375	15.30750465393067	102.1880264282227	-1017.354858398438	226.0170440673829	174.7144317626953	-1021.595336914063	220.6579589843751	174.0743865966797	-980.8389282226565	190.3872985839844	132.6362762451172	-932.6893310546877	nan	nan	nan	
